<?xml version="1.0" ?><!DOCTYPE svg  PUBLIC '-//W3C//DTD SVG 1.1//EN'  'http://www.w3.org/Graphics/SVG/1.1/DTD/svg11.dtd'><svg enable-background="new 0 0 32 32"  id="Слой_1" version="1.1" viewBox="0 0 32 32"  xml:space="preserve" xmlns="http://www.w3.org/2000/svg" xmlns:xlink="http://www.w3.org/1999/xlink"><path d="M16.701,31.71l6.999-6.899c0.394-0.391,0.394-1.024,0-1.414  c-0.395-0.391-1.034-0.391-1.429,0l-5.276,5.201V17.33l6.721-6.625c0.17-0.169,0.297-0.46,0.297-0.708v-9  c0-0.873-1.102-1.323-1.724-0.707l-6.285,6.196L9.72,0.289C9.114-0.312,8.014,0.098,8.014,1.088v8.816c0,0.292,0.056,0.58,0.278,0.8  l6.704,6.609v11.303l-5.294-5.219c-0.394-0.391-1.034-0.391-1.429,0c-0.394,0.391-0.394,1.024,0,1.414l6.999,6.9  c0.192,0.189,0.456,0.286,0.723,0.286C16.231,31.996,16.531,31.879,16.701,31.71z M10.014,9.578V3.401l4.982,4.911v6.177  L10.014,9.578z M16.996,8.33l5.018-4.947v6.178l-5.018,4.947V8.33z" fill="#121313" id="Vintage_Arrow_Down_1_"/><g/><g/><g/><g/><g/><g/></svg>